<?xml version="1.0" encoding="UTF-8" standalone="no"?>
<svg
   id="Layer_1"
   data-name="Layer 1"
   viewBox="0 0 193.13986 36.848343"
   version="1.1"
   sodipodi:docname="logo.svg"
   inkscape:version="1.3.2 (091e20e, 2023-11-25, custom)"
   width="193.13986"
   height="36.848343"
   xmlns:inkscape="http://www.inkscape.org/namespaces/inkscape"
   xmlns:sodipodi="http://sodipodi.sourceforge.net/DTD/sodipodi-0.dtd"
   xmlns="http://www.w3.org/2000/svg"
   xmlns:svg="http://www.w3.org/2000/svg">
  <sodipodi:namedview
     id="namedview4"
     pagecolor="#ffffff"
     bordercolor="#000000"
     borderopacity="0.25"
     inkscape:showpageshadow="2"
     inkscape:pageopacity="0.0"
     inkscape:pagecheckerboard="0"
     inkscape:deskcolor="#d1d1d1"
     inkscape:zoom="2.2021581"
     inkscape:cx="90.82"
     inkscape:cy="18.39105"
     inkscape:window-width="1920"
     inkscape:window-height="1057"
     inkscape:window-x="1072"
     inkscape:window-y="-8"
     inkscape:window-maximized="1"
     inkscape:current-layer="Layer_1" />
  <defs
     id="defs1">
    <style
       id="style1">
      .cls-1 {
        font-size: 17.69px;
      }

      .cls-1, .cls-2 {
        fill: #f1f2f2;
      }

      .cls-3 {
        font-family: ProductSans-Bold, 'Product Sans';
        font-weight: 700;
      }

      .cls-4 {
        font-family: ProductSans-Regular, 'Product Sans';
      }
    </style>
  </defs>
  <text
     class="cls-1"
     id="text2"
     x="44.869999"
     y="23.317427"><tspan
       class="cls-3"
       x="44.869999"
       y="23.317427"
       id="tspan1">Datum</tspan><tspan
       class="cls-4"
       x="99.680008"
       y="23.317427"
       xml:space="preserve"
       id="tspan2"> Techology</tspan></text>
  <path
     class="cls-2"
     d="m 34.74,3.7734411 v 6.8199999 c 0,0.38 -0.45,0.59 -0.74,0.34 L 27.7,5.5234411 v -1.27 l 6.53,-0.92 c 0.27,-0.04 0.51,0.17 0.51,0.45 z"
     id="path2" />
  <path
     class="cls-2"
     d="m 33.97,16.453441 v 4.94 c 0,0.18 -0.13,0.33 -0.31,0.36 l -5.35,0.75 v 5.35 c 0,0.18 -0.13,0.33 -0.31,0.36 l -4.94,0.69 c -0.22,0.03 -0.41,-0.14 -0.41,-0.36 v -5.25 l -11.33,1.59 v 5.56 l 5.26,-0.74 c 0.22,-0.03 0.41,0.14 0.41,0.36 v 4.94 c 0,0.18 -0.13,0.33 -0.31,0.36 l -10.52,1.48 c -0.26,0.04 -0.5,-0.17 -0.5,-0.44 v -10.72 l -5.25,0.74 c -0.22,0.03 -0.41,-0.14 -0.41,-0.36 v -4.94 c 0,-0.18 0.13,-0.33 0.31,-0.36 l 22.35,-3.14 V 1.0534411 c 0,-0.17999999 0.13,-0.32999999 0.31,-0.35999999 l 4.92,-0.69 c 0.22,-0.03 0.41,0.14 0.41,0.36 V 16.843441 l 5.25,-0.74 c 0.22,-0.03 0.41,0.14 0.41,0.36 z"
     id="path3" />
  <path
     class="cls-2"
     d="m 19.87,15.343441 -6.03,0.85 c -0.26,0.04 -0.5,-0.17 -0.5,-0.44 V 9.7334411 c 0,-0.22 0.16,-0.4 0.38,-0.44 l 6.03,-0.85 c 0.26,-0.04 0.5,0.17 0.5,0.44 v 6.0199999 c 0,0.22 -0.16,0.4 -0.38,0.44 z"
     id="path4" />
</svg>
